<svg width="800" height="800" viewBox="0 0 800 800" fill="none" xmlns="http://www.w3.org/2000/svg">
<path fill-rule="evenodd" clip-rule="evenodd" d="M399.813 516.666C464.247 516.666 516.48 464.433 516.48 400C516.48 335.566 464.247 283.333 399.813 283.333C335.38 283.333 283.146 335.566 283.146 400C283.146 464.433 335.38 516.666 399.813 516.666ZM399.813 449.813C372.303 449.813 350 427.51 350 400C350 372.49 372.303 350.186 399.813 350.186C427.323 350.186 449.627 372.49 449.627 400C449.627 427.51 427.323 449.813 399.813 449.813Z" fill="#666666"/>
<path fill-rule="evenodd" clip-rule="evenodd" d="M400 166.667C239.626 166.667 130.556 253.635 72.9764 315.993C28.5795 364.074 28.5795 435.927 72.9764 484.007C130.556 546.367 239.626 633.334 400 633.334C560.373 633.334 669.443 546.367 727.023 484.007C771.42 435.927 771.42 364.074 727.023 315.993C669.443 253.635 560.373 166.667 400 166.667ZM121.956 361.22C172.944 306.001 265.563 233.334 400 233.334C534.436 233.334 627.056 306.001 678.043 361.22C698.856 383.76 698.856 416.24 678.043 438.78C627.056 494 534.436 566.667 400 566.667C265.563 566.667 172.944 494 121.956 438.78C101.142 416.24 101.142 383.76 121.956 361.22Z" fill="#666666"/>
</svg>
