<svg width="800" height="800" viewBox="0 0 800 800" fill="none" xmlns="http://www.w3.org/2000/svg">
<path d="M149.85 248.029C118.241 270.596 92.6141 294.725 72.9764 315.993C28.5795 364.073 28.5795 435.927 72.9764 484.007C130.556 546.367 239.626 633.333 400 633.333C443.193 633.333 482.663 627.027 518.41 616.59L462.983 561.163C443.12 564.697 422.126 566.667 400 566.667C265.563 566.667 172.944 494 121.956 438.78C101.142 416.24 101.142 383.76 121.956 361.22C141.251 340.323 166.508 316.928 197.738 295.918L149.85 248.029Z" fill="#666666"/>
<path d="M284.433 382.613C283.586 388.287 283.146 394.09 283.146 400C283.146 464.433 335.38 516.667 399.813 516.667C405.72 516.667 411.527 516.227 417.2 515.38L284.433 382.613Z" fill="#666666"/>
<path d="M515.537 414.903L384.91 284.276C389.79 283.654 394.763 283.333 399.813 283.333C464.247 283.333 516.48 335.566 516.48 400C516.48 405.05 516.16 410.023 515.537 414.903Z" fill="#666666"/>
<path d="M603.726 503.094C634.28 482.34 659.05 459.35 678.043 438.78C698.856 416.24 698.856 383.76 678.043 361.22C627.056 306.001 534.436 233.334 400 233.334C378.646 233.334 358.35 235.167 339.106 238.472L283.494 182.861C318.736 172.754 357.573 166.667 400 166.667C560.373 166.667 669.443 253.635 727.023 315.993C771.42 364.074 771.42 435.927 727.023 484.007C707.683 504.954 682.533 528.677 651.58 550.947L603.726 503.094Z" fill="#666666"/>
<path d="M66.9293 114.069C53.9116 101.051 53.9116 79.9456 66.9293 66.9283C79.9466 53.9106 101.052 53.9106 114.07 66.9283L733.346 686.206C746.366 699.223 746.366 720.33 733.346 733.346C720.33 746.363 699.223 746.363 686.206 733.346L66.9293 114.069Z" fill="#666666"/>
</svg>
